<svg fill="none" xmlns="http://www.w3.org/2000/svg" viewBox="0 0 500 500"><g clip-path="url(#a)"><path d="M452.899 222.2h-113.2s11.2-30.7 28.5-30.7 22.7 21.2 22.7 21.2 11.7-11.5 21.2-11.5c9.6 0 17.9 15.2 17.9 15.2s13.6-8.2 22.9 5.8ZM100 146.1H47.1S58.9 129 68.2 129s12.1 11.4 12.1 11.4 6.6-5.3 12.7-4.4c6 1 7 10.1 7 10.1ZM361.5 62.9h-52.9s11.8-17.1 21.1-17.1 12.1 11.4 12.1 11.4 6.6-5.3 12.7-4.4c6.1.9 7 10.1 7 10.1ZM196.199 113.2h-103s14.1-31.5 29.2-33.5 22.3 23.4 22.3 23.4 9.7-9 17.4-9c7.7 0 13.6 11.8 13.6 11.8s15.2-8 20.5 7.3ZM180 287.9H77s14.1-31.5 29.2-33.5 22.3 23.4 22.3 23.4 9.7-9 17.4-9c7.7 0 13.6 11.8 13.6 11.8s15.2-8 20.5 7.3Z" fill="#fff" fill-opacity=".5"/><path d="m48.8 358.8 50.3-.3 50.3-.1 100.6-.1 100.6.1 50.3.1 50.3.3-50.3.2-50.3.1-100.6.2-100.6-.2-50.3-.1-50.3-.2Z" fill="#263238"/><path d="M424.4 330.7c-3.4-4.3-7.2-9.1-7-14.9.2-5.3 2-11.2 6.9-14.1 1.4-.8 2.4-1.1 2.9.7.7 2.7-.5 6.1-1.1 8.7-.8 3.4-1.3 6.9-1.4 10.4-.1 2.5.1 4.9.1 7.4v1.3l.1.1c.1.1.1.2 0 .3 0 0 0 .1-.1.1-.1.1-.3.1-.4 0Z" fill="#FFC727"/><path d="M424.8 330.7c-2.8-4-6-8.1-5.6-13.1.2-2.3.9-4.7 1.8-6.8.4-1 1.6-3.9 2.9-4 2.3-.1-.8 9.2-.9 10.3-.6 4.1.2 8.1 1.7 11.9v.9c-1.2-2.6-1.9-5.4-2.2-8.3-.3-4 1-7.3 1.7-11.1.2-.8.8-3.4-.6-3.2-.9.1-2.1 3-2.4 3.6-.9 2-1.5 4.3-1.7 6.5-.4 5 2.7 9.1 5.3 13.3 0 0 .1-.1 0 0Z" fill="#fff"/><path d="m423.401 335.1-.6.3h-.1c-.1-.1-.1-.2-.1-.3l.1-.1h.1c.1 0 .1 0 .2-.1 2.4-2.9 5.2-5.4 7.6-8.4 2.2-2.8 4.3-5.8 6.8-8.4 1.6-1.7 9.7-9.5 11.5-4.6.8 2.1-.9 5.2-2 7-1.4 2.4-3.3 4.4-5.5 6.2-5.3 4.1-11.9 5.7-18 8.4Z" fill="#FFC727"/><path d="M435.701 328.2c2.1-1.4 4.1-3.1 5.7-5.1.6-.7 3.3-4 2.4-5-.6-.7-2.1.2-2.6.5-2.2 1.2-3.8 3.3-5.5 5.2-3.4 3.7-7.2 7.1-11.1 10.2-.3.1-.6.3-.8.5-.2.1-.5.3-.7.4-.1 0-.2.1-.2.1-.1 0-.1.1-.2.1-.1.1 0 .2.1.3.2-.1.4-.2.5-.3-.1.1-.3.2-.4.3.2-.1.3-.1.5-.2h.1c.2-.2.5-.3.7-.5 3.8-2.1 7.8-4 11.5-6.5Zm-10.2 5.3c2.3-1.8 4.5-3.8 6.6-5.8 1.7-1.6 3.3-3.4 4.9-5.1.9-1 1.8-2 2.9-2.8.8-.6 4-2.7 3.2.2-.6 2.1-3.3 4.5-4.9 5.9-1.8 1.5-3.7 2.8-5.7 4-2.3 1.2-4.6 2.4-7 3.6Z" fill="#fff"/><path d="M412.901 346.3c-.1-.1-.1-.1-.1-.2-2.7-4.2-7-9.4-6.8-14.7.2-3.9 2.4-9.2 6.3-10.8 4.4-1.8 3.6 6.5 3.4 8.7-.3 5.4-2.4 16.9-2.5 17v.1c-.1 0-.2 0-.3-.1Z" fill="#FFC727"/><path d="M413.101 346.4c0-.3 0-.7-.1-1-.2-3.9-.3-7.8-.2-11.7 0-1 .8-8.5-1.1-8.2-1.2.2-1.9 3-2.2 4-.5 1.7-.6 3.4-.5 5.1.3 3.9 2.3 7.5 3.7 11.2.1.2.1.3.2.5v.1h.2Zm-3.5-9.8c-.3-1.7-.4-3.5-.2-5.2.2-1.2.9-5.3 2.3-5.4.8 0 .7.4.8 1.3.1.4.1.8.1 1.2 0 1 0 2-.1 3-.1 1.8-.1 3.5-.1 5.3 0 2.9.1 5.8.3 8.7-.9-3-2.4-5.8-3.1-8.9Z" fill="#fff"/><path d="M426.701 347.7c-5.4 2.3-11.5 2.9-17.2 1.8h-.1c-.1-.1-.1-.2-.1-.3 0-.1.1-.2.2-.1.1 0 .2 0 .4.1 6-3.3 12.1-6.5 18-10 1.4-.8 10.5-5.8 11-2.2.3 2.2-3 4.7-4.5 6-2.3 1.9-4.9 3.5-7.7 4.7Z" fill="#FFC727"/><path d="M433.001 340.9c.4-.5.7-1.1 0-1.3-1.3-.5-5.5 1.9-6.7 2.5-5 2.5-10 4.6-15.2 6.6-.4.2-.9.4-1.3.5h-.5c0 .1 0 .2.1.3H410.201c3.6 0 7.3-.5 10.8-1.6 2.2-.7 4.3-1.6 6.3-2.8 1.8-1.1 4.4-2.5 5.7-4.2Zm-22.5 8.3h-.3c.2-.1.4-.1.5-.2 4.1-1.4 8.1-2.9 12-4.8 2-1 3.9-2 5.9-2.9.8-.4 3.2-1.5 4-1.2.8.3 0 .9-.5 1.3-.3.3-.9.7-1.2 1-6.1 4.4-13.1 6.7-20.4 6.8Z" fill="#fff"/><path d="m398 358.8-.6-.8c.7-.5 1.4-1.1 2.1-1.6l8.4-6.6c1.6-1.3 3.1-2.6 4.6-3.9.1 0 .1-.1.2-.1.1-.1.2-.2.4-.3.1-.1.3-.2.4-.4 3.3-3.1 6.3-6.4 8.6-10.5.8-1.3 1.4-2.7 2.1-4.1.1-.1.1-.3.2-.4v-.1c.1-.1.1-.3.2-.4 0-.1.1-.2.1-.3 2-4.3 3.6-8.7 5.3-13.1.5-1.2 1-2.5 1.5-3.7 0-.1.1-.2.1-.2 0-.1.1-.2.1-.3 2.2-5.5 4.5-11 6.5-16.5.1-.2.4-.1.3.1-1.3 3.7-2.6 7.4-3.9 11.2-.2.5-.3 1-.5 1.5-.3 1-.7 2-1 2.9-.7 2-1.4 3.9-2.1 5.9-2 5.5-4 11.1-6.7 16.2l-.6 1.2c-.1.2-.3.5-.4.7-.1.3-.3.5-.5.8-2.9 4.8-6.7 8.5-10.9 12-.3.2-.6.5-.9.7-.1.1-.3.2-.4.3l-.2.2c-.1.1-.2.1-.3.2-.1 0-.1.1-.2.2-.3.2-.5.4-.8.6-2.8 2.2-5.7 4.4-8.5 6.5-.8.7-1.7 1.4-2.6 2.1Z" fill="#FFC727"/><path d="M432.901 296.7c1.4-4.4 5.5-11.7 11.1-10.7 2.2.4 3.7 2.1 3.7 4.4 0 2.6-1.8 5.1-3.4 7.1-4.2 5.3-8.8 10.1-12.6 15.7 0 .1-.3.5-.4.6-.1.1-.2 0-.2-.1.1-.2.2-.4.4-.5.1-5.5-.2-11.3 1.4-16.5Z" fill="#FFC727"/><path d="M431.801 313.2s0-.1.1-.1c.7-1.7 1.5-3.3 2.4-4.9 1.8-3.3 4-6.4 6.3-9.4.9-1.2 5.2-6.7 1.6-7.1-1.5-.2-3.1 1.1-4.1 2.1-1.7 1.5-3 3.4-3.9 5.4-1.9 4.1-2.3 8.6-2.4 13v.6c0 .1 0 .1-.1.2 0 0 0 .1-.1.1v.1c-.1.1 0 .1.2 0 0 .1-.1.1 0 0Zm0-1.3c.2-3.7.5-7.4 1.8-10.8.7-1.8 1.5-3.5 2.7-5.1.5-.7 1.1-1.3 1.7-1.9.5-.4 1-.9 1.5-1.2 1.2-.8 2.7-1.2 3.3-.6.7.7.5 1.3-.1 2.6l-.6 1.2c-.6 1-1.3 1.9-1.9 2.8-1.1 1.5-2.2 3-3.3 4.6-.7 1.1-1.4 2.1-2.1 3.2-1.1 1.9-2.1 3.8-3 5.9-.1-.2-.1-.4 0-.7Z" fill="#fff"/><path d="M55.4 323.7c2.7 2.5 5.3 5.2 7.8 7.9 1.4 1.5 2.8 3.1 4.3 4.6 1.6 1.7 3.1 3.6 5.3 4.4l.3.2c.1.2-.1.4-.3.3-.1 0-.1 0-.1-.1h-.1c-.6 0-1.6-.4-2-.5-1.8-.4-3.6-1-5.4-1.6-3.6-1.3-7.1-3-10.2-5.1-2.8-1.9-5.4-4.2-7.7-6.8-1.8-2.1-4.5-5.1-5-7.9-.5-2.5 2.8-2 4.3-1.6 3.4 1.1 6.3 3.8 8.8 6.2Z" fill="#FFC727"/><path d="M47.2 321.8c-.8 1.1 2.2 4.4 3.4 5.9 1.9 2.3 4.2 4.4 6.7 6.2 4.4 3.2 9.4 5.5 14.6 7 .2.1.4.1.6.2h.2c.2.1.4-.2.3-.3l-1.2-.6c-.4-.2-.7-.4-1.1-.6-3.8-2.3-7.1-5.4-10.3-8.4-3.7-3.5-12.2-10.8-13.2-9.4Zm24.1 18.5c.5.3 1.1.6 1.6.8-.4-.1-.9-.3-1.3-.4-4.5-1.5-8.9-3.5-12.9-6.1-2.2-1.5-4.3-3.2-6.2-5.2-1-1-2-2.1-2.8-3.3-.4-.5-2.7-3.4-2.1-3.9.4-.4 3.2 1.4 3.2 1.4.5.3 1.1.7 1.6 1.1 1.1.8 2.1 1.7 3.1 2.5 2.2 1.9 4.3 3.9 6.5 5.9 2.9 2.6 5.9 5.3 9.3 7.2Z" fill="#fff"/><path d="M75.9 312.4c2.5 4.8 3 10.3 3.1 15.6 0 2.8-.1 5.7-.1 8.5 0 2.4-.2 5.1.3 7.6 0 .1 0 .2.1.3.2.7.4 1.4.7 2v.1c0 .1.1.1.1.2 0 0 0 .1-.1.1s-.1-.1-.2-.2c-.1 0-.1 0-.2-.1v-.1l-.2-.2c-4.1-3.8-6.5-10.3-8.1-15.5-1.6-5.2-2.3-10.7-.9-16 .3-1.3.9-4.5 2.5-5 1.6-.3 2.5 1.7 3 2.7Z" fill="#FFC727"/><path d="M73.7 315.5c-1.6.3-1.3 4.7-1.2 5.8.1 3.3.8 6.6 1.5 9.8 1.2 5.3 2.7 10.4 5.4 15 0 .1 0 .1.1.2l.2.2v.1c0 .1.1.1.2.1 0-.1 0-.2-.1-.3-.2-.7-.3-1.3-.5-2 0-.1 0-.2-.1-.3-.9-4.6-1.1-9.4-1.5-14.1-.2-3.3-.6-6.6-1.5-9.7-.1-.8-1.1-5-2.5-4.8Zm1.5 2.4c2.2 5.1 2.2 11.3 2.5 16.8.2 3.7.6 7.5 1.5 11-2.3-4.3-3.7-9-4.7-13.7-.6-2.7-1.2-5.4-1.5-8.1-.2-1.5-.3-3-.2-4.5 0-.7.1-2 .3-2.7.6-1.6 1.7.3 2.1 1.2Z" fill="#fff"/><path d="M88.8 353.7v.3h.1c.1 0 .1 0 .1.1 0 0 0 .1-.1.1-6.4 1-13.5 1.3-19.8-.4-2.7-.7-5.2-1.8-7.5-3.4-1.6-1.1-4.7-3.2-4.9-5.3-.4-4.2 10.9.2 12.6.8 3.1 1.2 6.1 2.7 9.1 4 3.3 1.4 6.8 2.5 10.2 3.7.1 0 .2.1.2.1Z" fill="#FFC727"/><path d="M88.8 353.7c-.3 0-.7-.1-1-.1-5.7-.6-10.9-2.1-16.2-4.4-2.6-1.1-5.2-2.3-7.9-3-.7-.2-3.2-1-2.8.7.2.8 4.3 3.2 5.4 3.7 2.6 1.2 5.3 2 8.1 2.5 4.6.9 9.4 1.2 14.1 1h.4s0-.1-.1-.1h-.1c.1-.1.1-.2.1-.3Zm-12-.5c-2.8-.4-5.5-1-8.2-2-1-.4-2.1-.8-3.1-1.4-.8-.4-1.6-.8-2.3-1.3-1.7-1.3-2.1-1.7-1.9-2.1.1-.2.5-.3 1.9-.1.9.1 1.8.5 2.6.8l3.6 1.5c2.4 1 4.8 2.1 7.2 2.9 3.5 1.2 7.2 2 10.9 2.3-3.5.2-7.1 0-10.7-.6Z" fill="#fff"/><path d="M88.1 335.4c1.6 1.7 2.6 3.9 3.3 6 1.5 4.4 2 9 3.1 13.4.2.7.4 1.3.6 2 0 .1.5.8.4.8l-.6-.6c-1.7-1.8-6.9-7.4-8.9-11.2-1.2-2.3-2.4-4.8-3-7.4-.3-1.2-.8-4 .4-4.9 1.5-1.1 3.9 1 4.7 1.9Z" fill="#FFC727"/><path d="M85.5 336.5c-1.7.7 1.8 8.2 2.3 9.2 1.7 3.7 3.8 7.1 6.3 10.2.3.4.6.7.9 1l.6.6s-.4-.7-.4-.8c0-.1-.1-.2-.1-.3-.2-.5-.3-1.1-.5-1.6-1.1-3-2.2-6-3.4-8.9-.9-2.1-1.8-4.2-3-6.2-.3-.4-2-3.6-2.7-3.2Zm1.4 1.5c3.8 5.5 5.2 12.1 7.7 18.2 0 .1.1.2.1.3-.1-.1-.2-.3-.3-.4-2-2.6-3.8-5.4-5.3-8.4-.9-1.8-1.7-3.7-2.4-5.6-.4-1-.8-2.1-1.1-3.2-.1-.5-.3-1.8 0-1.9.5-.2 1 .6 1.3 1Z" fill="#fff"/><path d="M54.9 292.2c6 10.1 3 23 8.3 33.3v.1c.2.3.3.6.5.9.1.2 0 .3-.2.3-.1 0-.1 0-.2-.1 0-.1-.1-.1-.1-.2-4.8-4.4-8.7-10.5-11.5-16.3-2.5-5.1-4.1-10.8-3.3-16.4.2-1.4.5-4.2 2.2-4.7 2-.6 3.6 1.9 4.3 3.1Z" fill="#FFC727"/><path d="M52.9 295.9c-.7.2-.8 1.3-.9 1.8-.2 1.4-.2 2.9-.1 4.3.2 2.9 1.1 5.8 2.2 8.5 1.8 4.6 4.2 9.2 7.1 13.3l2.1 2.7.3.3c.1 0 .2-.2.2-.3-.2-.3-.3-.6-.5-.9v-.1c-1.2-2-2.2-4.1-3-6.3-1.2-3.4-1.9-7-2.7-10.5-.4-1.4-2.3-13.6-4.7-12.8Zm1.6 2.1c1.2 2.6 1.6 5.6 2.3 8.4.6 2.8 1.2 5.7 1.9 8.5.5 2.2 1.3 4.5 2.2 6.6.8 1.8 1.7 3.5 2.7 5.1-1.2-1.5-2.3-3-3.3-4.6v-.1c-1.8-2.9-3.3-5.9-4.7-9 0 0 0-.1-.1-.1-1.2-2.7-2.3-5.5-2.9-8.4-.3-1.6-.5-3.2-.4-4.8.1-1.8.3-3.3 1-3.3.3 0 .9.9 1.3 1.7Z" fill="#fff"/><path d="M55.7 312.8c1.6 2.9 3.4 5.8 5.1 8.7.8 1.4 1.6 2.7 2.4 4v.1l.9 1.5c2.7 4.4 5.3 9 8.6 12.9 1.8 2 3.8 3.9 5.9 5.6.2.2.4.3.7.5.1.1.2.2.4.3l.2.2c1.9 1.4 3.8 2.8 5.7 4.1 2.6 1.8 5.4 3.5 8.2 5 .1.1.2.1.2.1.1.1.3.1.4.2.1 0 .1.1.2.1.1.1.2.1.4.2.9.5 1.8 1 2.7 1.6l-.6.8c-2.9-1.3-5.7-2.8-8.4-4.5-.1 0-.1-.1-.2-.1-.3-.2-.5-.3-.8-.5-.3-.2-.6-.4-1-.6-.8-.5-1.5-1-2.3-1.5-4.3-3-8.7-6.2-12.2-10.1l-.3-.3-.1-.1c-.1-.1-.1-.2-.2-.2l-.3-.4c-.2-.2-.4-.5-.6-.7l-.2-.2c-2.9-3.7-5.2-8-7.5-12-.4-.7-.8-1.5-1.2-2.2-.2-.4-.5-.8-.7-1.2-.3-.6-.7-1.3-1-1.9v-.1c-1.6-3-3.1-6-4.7-9 0-.3.2-.4.3-.3Z" fill="#FFC727"/><path d="M250 448.2c105.376 0 190.8-14.417 190.8-32.2 0-17.784-85.424-32.2-190.8-32.2S59.2 398.216 59.2 416c0 17.783 85.424 32.2 190.8 32.2Z" fill="#37474F" fill-opacity=".15"/><path d="M175.801 137.6c-6.2 5.2-36.7 42.7-82.2 30.6 0 0 7.8 32.3 23.3 32.3 15.4 0 24.7-23.4 24.7-23.4s1.7 4.1 5.7 3.7c8.1-.7 22.5-24.2 28.6-37.4v-5.8h-.1Z" fill="#FFC727"/><path opacity=".1" d="M175.801 137.6c-6.2 5.2-36.7 42.7-82.2 30.6 0 0 7.8 32.3 23.3 32.3 15.4 0 24.7-23.4 24.7-23.4s1.7 4.1 5.7 3.7c8.1-.7 22.5-24.2 28.6-37.4v-5.8h-.1Z" fill="#000"/><path opacity=".1" d="M175.801 137.6v3.8c-3.9 5.6-23.1 31.9-41.8 36.5-20.9 5.1-40.4-9.6-40.4-9.6 45.5 11.9 76-25.5 82.2-30.7Z" fill="#000"/><path d="M324.201 137.6c6.2 5.2 36.7 42.7 82.2 30.6 0 0-7.8 32.3-23.3 32.3-15.4 0-24.7-23.4-24.7-23.4s-1.7 4.1-5.7 3.7c-8.1-.7-22.5-24.2-28.6-37.4v-5.8h.1Z" fill="#FFC727"/><path opacity=".1" d="M324.201 137.6c6.2 5.2 36.7 42.7 82.2 30.6 0 0-7.8 32.3-23.3 32.3-15.4 0-24.7-23.4-24.7-23.4s-1.7 4.1-5.7 3.7c-8.1-.7-22.5-24.2-28.6-37.4v-5.8h.1Z" fill="#000"/><path opacity=".1" d="M324.2 137.6v3.8c3.9 5.6 23.1 31.9 41.8 36.5 20.9 5.1 40.4-9.6 40.4-9.6-45.5 11.9-76-25.5-82.2-30.7Z" fill="#000"/><path d="M378.3 415.4c-5.7-.7-83.4-25.9-84.8-25.9-1.4 0-21.5 1.8-43.4 1.8s-42-1.8-43.4-1.8c-1.4 0-79.1 25.2-84.8 25.9-5.7.7-56.8-68.9-54.3-71.3 2.5-2.5 21.3 1.4 23.4 1.1 2.1-.4 38.3-21.3 38.7-23.1.4-1.8 6-46.1 12.1-80.9 6-34.8 18.9-87 34.1-103.5 15.1-16.6 52.5-26 74.3-26 21.8 0 59.2 9.5 74.3 26 15.1 16.6 28 68.7 34.1 103.5 6 34.8 11.7 79.2 12.1 80.9.4 1.8 36.6 22.7 38.7 23.1 2.1.4 20.9-3.6 23.4-1.1 2.3 2.4-48.9 72-54.5 71.3Z" fill="#FFC727"/><path d="M225.2 114.9c1.5-.7 8.6-8.4 18.2-11 3.3-.9-2.8 6-2.8 6s14.2-8.5 19.9-10.6c9.5-3.4 14.3-4.2 14.3-2.6 0 3.5-14.9 10.2-17.4 13 0 0 8.8-2.1 11.8-.3 3 1.9-7.8 3.7-7.8 3.7l-36.2 1.8Z" fill="#FFC727"/><path opacity=".1" d="M223.201 199.2c1.1 5.1 1.2 10.3.5 15.5-.7 5.2-2.3 10.3-5.1 14.9-1.4 2.2-3.1 4.3-5 6.2-2 1.8-4.1 3.4-6.4 4.7-4.7 2.5-9.8 3.9-15 4.2 5-1.2 9.9-3 14.2-5.6 2.1-1.4 4.1-2.9 5.9-4.7 1.8-1.8 3.3-3.8 4.6-5.9 2.7-4.2 4.3-9.1 5.3-14.1.9-4.9 1.2-10.1 1-15.2Z" fill="#000"/><path d="M192.701 173.8c-19.5 0-29.4 15-29.4 32.5 0 14.2 11.6 28.7 30.4 28.7 18.8 0 30.4-17 30.4-30.4 0-13.3-10.1-30.8-31.4-30.8Z" fill="#fff"/><path d="M193.001 180.4c-15.3 0-23 11.7-23 25.5 0 11.1 9.1 22.5 23.8 22.5 14.7 0 23.8-13.3 23.8-23.8s-8-24.2-24.6-24.2Z" fill="#263238"/><path d="M200.001 180.6c-6.9 0-10.4 5.3-10.4 11.6 0 5 4.1 10.2 10.8 10.2 6.7 0 10.8-6.1 10.8-10.8 0-4.7-3.6-11-11.2-11Z" fill="#fff"/><path d="M175.4 170.2c6.7 1.2 13.4 2.5 20.1 3.8l20.1 3.9-.4 1.6-37-10.2.6-2.5c12.1 2.2 24.3 4.3 36.4 6.6l-.7 2.8-18.5-5.1-18.4-5.2.6-2.9 19.7 3.2 19.7 3.2-.5 2.5-38.2-10.2.3-1.6c6.6.8 13.2 1.8 19.8 2.7 6.6.9 13.2 1.8 19.8 2.8-6.6-.6-13.3-1.2-19.9-1.9-6.6-.7-13.3-1.3-19.9-2l.3-1.6 38.5 9.3-.5 2.5-19.8-3-19.8-3 .6-2.9 18.5 5.1 18.4 5.2-.7 2.8c-12.1-2.2-24.2-4.6-36.3-6.9l.6-2.5 36.7 11.1-.4 1.6c-6.6-1.5-13.3-3.1-19.9-4.6-6.6-1.5-13.2-3-19.8-4.6Z" fill="#263238"/><path d="M249.001 131.2c-19.5 0-29.4 15-29.4 32.5 0 14.2 11.6 28.7 30.4 28.7 18.8 0 30.4-17 30.4-30.4 0-13.3-10.2-30.8-31.4-30.8Z" fill="#fff"/><path d="M249.2 137.8c-15.3 0-23 11.7-23 25.5 0 11.1 9.1 22.5 23.8 22.5 14.7 0 23.8-13.3 23.8-23.8s-8-24.2-24.6-24.2Z" fill="#263238"/><path d="M249.701 136.7c-6.9 0-10.4 5.3-10.4 11.6 0 5 4.1 10.2 10.8 10.2 6.7 0 10.8-6.1 10.8-10.8-.1-4.8-3.7-11-11.2-11Z" fill="#fff"/><path d="M229.001 135.9c6.8-.2 13.6-.2 20.4-.3 6.8-.1 13.6-.2 20.4-.2l-.1 1.6-38.3-2.5.1-2.5c12.3-.3 24.6-.7 37-1l-.1 2.9-19.1-1.2-19.1-1.3v-2.9l20-.9 20-.9v2.6l-39.5-2.2v-1.6c6.7-.5 13.3-.9 20-1.4 6.7-.5 13.3-.9 20-1.3-6.6.8-13.3 1.5-19.9 2.2-6.6.7-13.3 1.5-19.9 2.1v-1.6l39.6 1.3v2.6l-20 1.1-20 1v-2.9l19.1 1.3 19.1 1.3-.1 2.9c-12.3.3-24.7.4-37 .6l.1-2.5 38.2 3.4-.1 1.6c-6.8-.1-13.6-.3-20.4-.5-6.8-.4-13.6-.6-20.4-.8Z" fill="#263238"/><path opacity=".1" d="M277 199.2c-.3 5.2.1 10.3 1 15.3 1 5 2.6 9.8 5.3 14.1 1.3 2.1 2.8 4.1 4.6 5.9 1.8 1.8 3.8 3.3 5.9 4.7 4.3 2.6 9.1 4.4 14.2 5.6-5.1-.4-10.3-1.7-15-4.2-2.3-1.3-4.5-2.9-6.4-4.7-1.9-1.8-3.6-3.9-5-6.2-2.8-4.5-4.4-9.7-5.1-14.9-.7-5.3-.6-10.5.5-15.6Z" fill="#000"/><path d="M307.4 173.8c19.5 0 29.4 15 29.4 32.5 0 14.2-11.6 28.7-30.4 28.7-18.8 0-30.4-17-30.4-30.4.1-13.3 10.2-30.8 31.4-30.8Z" fill="#fff"/><path d="M307.2 180.4c15.3 0 23 11.7 23 25.5 0 11.1-9.1 22.5-23.8 22.5-14.7 0-23.8-13.3-23.8-23.8s8-24.2 24.6-24.2Z" fill="#263238"/><path d="M300.1 180.6c6.9 0 10.4 5.3 10.4 11.6 0 5-4.1 10.2-10.8 10.2-6.7 0-10.8-6.1-10.8-10.8.1-4.7 3.7-11 11.2-11Z" fill="#fff"/><path d="M324.6 170.2c-6.6 1.6-13.3 3.2-19.9 4.7-6.6 1.5-13.3 3.1-19.9 4.6l-.4-1.6 36.7-11.1.6 2.5c-12.1 2.3-24.2 4.7-36.3 6.9l-.7-2.8 18.4-5.2 18.5-5.1.6 2.9-19.8 3-19.8 3-.5-2.5 38.5-9.3.3 1.6c-6.6.7-13.3 1.3-19.9 2-6.6.7-13.3 1.3-19.9 1.9 6.6-1 13.2-1.9 19.8-2.8 6.6-.9 13.2-1.9 19.8-2.7l.3 1.6-38.1 10.2-.5-2.5 19.7-3.2 19.7-3.2.6 2.9-18.4 5.2-18.5 5.1-.7-2.8c12.1-2.2 24.3-4.4 36.4-6.6l.6 2.5-37 10.2-.4-1.6c6.7-1.4 13.4-2.6 20.1-3.9 6.7-1.4 13.4-2.7 20.1-3.9ZM281.5 247.9c-1.5 3-19-1.1-31.5-1.1-13.3 0-30.1 4.1-31.5 1.1-1.4-3 6.5-33.1 31.5-33.1s33 30.1 31.5 33.1Z" fill="#263238"/><path d="M271.5 248.7c-6.4-.6-14.7-1.9-21.5-1.9-7.1 0-15.3 1.2-21.5 1.8 7.9-15.1 16.1-16.4 21.5-10.4 5.4-6 13.6-4.7 21.5 10.5Z" fill="#FF99BA"/><path d="M235.5 247.9c-3.5.4-6.8.8-9.6 1l2.7-10.3 4-.7 2.9 10ZM276.2 249c-2.9-.1-6.6-.5-10.6-1l3.8-8.5 5.1.4 1.7 9.1Z" fill="#fff"/><path d="M316.3 273.9c-1.7-8.7-4.7-16.4-9-23.2-4.3-6.8-9.7-12.4-16.3-16.8-4.8-3.3-10.1-5.6-15.7-7.1-.4.9-1.1 1.7-1.9 2.1-2 .8-3.6-.9-3.6-.9s-.8 2-2.5 2.6c-1.6.6-3-1.1-3-1.1s-1.7 4.2-4.9 4.4c-3.2.1-4.8-5.3-4.8-5.3s-1.2 2.7-3.2 2.7-4.9-3.7-4.9-3.7v-.7c-.5.1-.9.3-1.4.4-7.5 2.4-14.3 6.3-20.3 11.6s-11.1 11.9-15.2 19.7c-4.1 7.9-6.9 16.7-8.3 26.6-1.4 9.8-1.3 19.1.5 27.8 1.7 8.7 4.7 16.4 9 23.2 4.3 6.8 9.7 12.3 16.2 16.7 6.5 4.4 14 7.1 22.3 8.3 8.2 1.2 16.1.6 23.7-1.7 7.6-2.3 14.4-6.2 20.4-11.5 6-5.3 11.1-11.9 15.2-19.7 4.1-7.9 6.9-16.7 8.3-26.6 1.3-9.8 1.1-19.1-.6-27.8Zm-29.8 23.5c-.9 6-2.3 11.3-4.4 16-2.1 4.7-4.6 8.7-7.5 11.9-3 3.2-6.3 5.6-9.9 7-3.6 1.5-7.5 1.9-11.5 1.3-4.2-.6-7.8-2.1-10.9-4.5-3.1-2.4-5.6-5.6-7.5-9.5-1.9-3.9-3.2-8.5-3.9-13.6-.6-5.1-.5-10.6.3-16.6.9-6 2.3-11.3 4.4-16.2 2.1-4.8 4.6-8.8 7.6-12 3-3.2 6.3-5.6 9.9-7 3.6-1.4 7.5-1.9 11.7-1.3 4 .6 7.6 2.1 10.7 4.5 3.1 2.4 5.6 5.6 7.5 9.5 1.9 3.9 3.2 8.5 3.9 13.7.6 5.3.5 10.8-.4 16.8Z" fill="#37474F"/><path d="M310.9 272.8c-1.7-8.7-4.7-16.4-9-23.2-4.3-6.8-9.7-12.4-16.3-16.8-4.8-3.3-10.1-5.6-15.7-7.1-.4.9-1.1 1.7-1.9 2.1-2 .8-3.6-.9-3.6-.9s-.8 2-2.5 2.6c-1.6.6-3-1.1-3-1.1s-1.7 4.2-4.9 4.4c-3.2.1-4.8-5.3-4.8-5.3s-1.2 2.7-3.2 2.7-4.9-3.7-4.9-3.7v-.7c-.5.1-.9.3-1.4.4-7.5 2.4-14.3 6.3-20.3 11.6s-11.1 11.9-15.2 19.7c-4.1 7.9-6.9 16.7-8.3 26.6-1.4 9.8-1.3 19.1.5 27.8 1.7 8.7 4.7 16.4 9 23.2 4.3 6.8 9.7 12.3 16.2 16.7 6.5 4.4 14 7.1 22.3 8.3 8.2 1.2 16.1.6 23.7-1.7 7.6-2.3 14.4-6.2 20.4-11.5 6-5.3 11.1-11.9 15.2-19.7 4.1-7.9 6.9-16.7 8.3-26.6 1.3-9.9 1.2-19.1-.6-27.8Zm-29.7 23.4c-.9 6-2.3 11.3-4.4 16-2.1 4.7-4.6 8.7-7.5 11.9-3 3.2-6.3 5.6-9.9 7-3.6 1.5-7.5 1.9-11.5 1.3-4.2-.6-7.8-2.1-10.9-4.5-3.1-2.4-5.6-5.6-7.5-9.5-1.9-3.9-3.2-8.5-3.9-13.6-.6-5.1-.5-10.6.3-16.6.9-6 2.3-11.3 4.4-16.2 2.1-4.8 4.6-8.8 7.6-12 3-3.2 6.3-5.6 9.9-7 3.6-1.4 7.5-1.9 11.7-1.3 4 .6 7.6 2.1 10.7 4.5 3.1 2.4 5.6 5.6 7.5 9.5 1.9 3.9 3.2 8.5 3.9 13.7.6 5.3.5 10.9-.4 16.8Z" fill="#2B777E"/><path d="m262 217.5-2.6 14h-6.2l-1.8-13.1-.8 8.6-6.3.3-1.8-11.5c2.3-.6 4.8-1 7.4-1 4.7 0 8.6 1 12.1 2.7Z" fill="#fff"/><path d="M250.001 391.2s0 .1 0 0h-.2.2Z" fill="#000"/><path d="M249.801 391.2h.2s0 .1-.2 0c0 0 0 .1 0 0Z" fill="#000"/><path opacity=".1" d="M200.4 385.5s25.7 5.7 49.4 5.7c-21.8 0-41.8-1.8-43.2-1.8-1.4 0-79.1 25.2-84.8 25.9-2.4.3-12.6-11.6-23.6-25.8 4.5 3.1 22.3 15.3 24.4 15.3 2.3.1 77.8-19.3 77.8-19.3ZM402.1 389.3c-11.1 14.3-21.5 26.4-23.9 26.1-5.7-.7-83.4-25.9-84.8-25.9-1.4 0-21.5 1.8-43.4 1.8 23.7 0 49.4-5.7 49.4-5.7s75.4 19.4 77.9 19.4c2.2-.1 21.2-13.2 24.8-15.7Z" fill="#000"/><path d="M142.7 234.9s-30.6 36.6-29.2 64.8c1.4 28.2 26.6 47.7 60.2 47.9 0 0 14.4 2 20 0 0 0-6.9-11.4-7.6-13.1 0 0 15.1-4.1 23.6-16.5 0 0-12-5.5-17.5-11.7 0 0 7.4-11 9-12.4 0 0-15.3 1.1-20.6 2.1 0 0-23.6-1.4-32.8-18.5-9.2-17.1-5.1-42.6-5.1-42.6Z" fill="#FFC727"/><path d="M123.7 326.3c3 3.6 6.6 6.6 10.4 9.3 3.9 2.6 8 4.8 12.3 6.5l3.3 1.2 1.6.6 1.7.4 3.4.9 3.4.6 1.7.3c.6.1 1.2.1 1.7.2l3.5.4c2.3.2 4.6.1 7 .2h.2c3.3.5 6.6.7 9.9.8 3.3 0 6.6-.1 9.7-.9l-.5 1.2-3.9-6.5-1.9-3.3c-.6-1.1-1.3-2.2-1.8-3.5l-.4-.9 1-.3c2.2-.7 4.5-1.7 6.6-2.7 2.2-1.1 4.2-2.3 6.2-3.6 2-1.3 3.9-2.8 5.6-4.5 1.7-1.6 3.2-3.5 4.6-5.4l.4 1.4c-1.7-.8-3.2-1.6-4.8-2.4-1.6-.9-3.1-1.8-4.6-2.7-3-2-5.9-4.1-8.4-6.8l-.5-.5.4-.6c1.4-2.2 2.8-4.3 4.3-6.5.7-1.1 1.5-2.1 2.3-3.2.8-1 1.6-2.1 2.7-3l.6 1.6c-3.4.2-6.9.5-10.3.8-3.4.3-6.9.6-10.2 1.2h-.1c-4.9-.1-9.6-1.2-14.1-2.8-4.5-1.7-8.7-4.2-12.2-7.4-3.5-3.3-6.3-7.2-8.2-11.6-1.9-4.4-3-9-3.5-13.7.7 4.7 2 9.3 4 13.5 2 4.2 4.9 8 8.4 11.1 3.5 3.1 7.6 5.4 12 7 4.4 1.5 9 2.5 13.6 2.5h-.1c3.4-.7 6.9-1.1 10.3-1.4 3.4-.3 6.9-.6 10.4-.8l2.7-.2-2.1 1.8c-.8.7-1.6 1.7-2.4 2.7-.8 1-1.5 2-2.2 3.1-1.4 2.1-2.8 4.3-4.2 6.4l-.1-1.1c2.3 2.5 5.1 4.6 8.1 6.5 1.5.9 3 1.8 4.5 2.6s3.1 1.6 4.7 2.3l1.1.5-.7 1c-1.4 2.1-3 4-4.9 5.8-1.8 1.7-3.8 3.3-5.9 4.6-2.1 1.4-4.2 2.6-6.5 3.7-2.2 1.1-4.5 2-6.9 2.8l.6-1.2c.4 1 1.1 2.2 1.7 3.2l1.9 3.3 3.9 6.5.6 1-1.1.3c-3.4.8-6.8.9-10.2.9-3.4-.1-6.7-.4-10.1-1h.1c-2.4-.1-4.7-.2-7.1-.4l-3.5-.4c-.6-.1-1.2-.1-1.8-.2l-1.7-.4-3.5-.7-3.4-1-1.7-.5-1.7-.6c-1.1-.4-2.2-.8-3.3-1.3-4.3-1.8-8.5-4.2-12.3-6.9-4-2.9-7.5-6-10.3-9.8Z" fill="#263238"/><path d="M122.5 266s-13.6 13.3-14.1 22.9c-.2 3.5 5.1-3.5 5.1-3.5s-3.9 11.9-3.2 15.5c.7 3.6 3.2-5.4 3.2-5.4l9-29.5ZM356.9 233s22.5 42 15.4 69.3c-7.1 27.3-35.8 41.3-68.7 34.7 0 0-14.5-1-19.6-4.1 0 0 9-9.7 10.1-11.3 0 0-13.9-7.1-19.8-21 0 0 12.9-2.9 19.5-7.9 0 0-5-12.3-6.3-14 0 0 14.7 4.1 19.7 6.3 0 0 23.4 3.4 35.9-11.4 12.6-14.8 13.8-40.6 13.8-40.6Z" fill="#FFC727"/><path d="M363.2 320.2c-3.3 4.3-7.6 7.8-12.2 10.7-4.6 2.9-9.7 5-15 6.4-5.3 1.4-10.8 2.1-16.2 2.1-5.5 0-10.9-.6-16.3-1.6h.1c-3.4-.2-6.7-.5-10.1-1.1-3.3-.6-6.7-1.4-9.8-2.9l-1.1-.5.8-.9 5.1-5.6 2.5-2.8c.8-.9 1.7-1.9 2.3-2.8l.3 1.3c-2.2-1.2-4.2-2.6-6.2-4.1-2-1.5-3.9-3.1-5.6-4.9-1.8-1.8-3.4-3.7-4.8-5.7-1.4-2.1-2.7-4.3-3.6-6.6l-.4-1.1 1.1-.3c1.7-.4 3.4-.8 5-1.3 1.7-.5 3.3-1.1 5-1.7 3.2-1.2 6.4-2.7 9.2-4.7l-.3 1.1c-.9-2.4-1.8-4.8-2.8-7.1-.5-1.2-1-2.3-1.5-3.5-.3-.6-.5-1.1-.8-1.7-.3-.5-.6-1.1-.9-1.4l-1.9-2.2 2.8.8c3.3.9 6.7 1.9 10 2.9 3.3 1.1 6.6 2.2 9.8 3.5h-.1c4.5.9 9.2.9 13.8.3 4.6-.6 9.1-2.1 13.2-4.4 4.1-2.3 7.6-5.4 10.5-9.2 2.8-3.7 5-8 6.6-12.4-1.4 4.5-3.4 8.9-6.2 12.7-2.8 3.9-6.3 7.2-10.4 9.7-4.1 2.5-8.7 4-13.5 4.8-4.7.7-9.5.8-14.3-.1h-.1c-3.2-1.2-6.5-2.3-9.7-3.3-3.3-1-6.6-2-9.9-2.8l.9-1.4c.5.6.8 1.2 1.2 1.8l.9 1.8c.6 1.2 1.1 2.4 1.6 3.5 1 2.4 1.9 4.8 2.9 7.2l.2.7-.6.4c-3 2.2-6.3 3.7-9.6 5-1.7.6-3.4 1.2-5.1 1.7-1.7.5-3.4 1-5.2 1.4l.7-1.3c1.8 4.4 4.6 8.3 7.9 11.7 1.7 1.7 3.5 3.3 5.4 4.8 1.9 1.5 3.9 2.9 5.9 4l.9.5-.6.8c-.8 1.2-1.7 2-2.5 3l-2.5 2.8-5.2 5.6-.3-1.4c2.9 1.4 6.1 2.2 9.4 2.8 3.2.6 6.6 1 9.9 1.3h.1c5.3 1.1 10.6 1.8 16 1.9 5.4.1 10.7-.5 16-1.8 5.2-1.3 10.3-3.2 15-5.9 2.3-1.4 4.6-2.9 6.7-4.6 1.8-1.9 3.8-3.8 5.6-5.9Z" fill="#263238"/><path d="M373.6 287.9s3.1 11.1 1.2 17.4c-1.9 6.3-2.5-2.9-2.5-2.9s-.7 11.8-2.1 12.3c-1.4.6-.5-4.9-.5-4.9l3.9-21.9Z" fill="#FFC727"/><g opacity=".1" fill="#000"><path opacity=".1" d="M97.1 349.7c.5 8 17.1 9 20.1.7s-20.7-10.8-20.1-.7ZM350.9 392.3c-2 6.4 9.3 11.4 13.8 5.7 4.5-5.8-11.3-13.8-13.8-5.7ZM274.1 377.8c-.8 2.7 2.5 4.1 4 1.5 1.4-2.6-3-4.9-4-1.5ZM347.9 318.2c2.8 5.8 15.5 1.5 15.2-5.6-.3-7.1-18.7-1.8-15.2 5.6ZM128.3 349.1c2.3 2.5-3.7 6-5.4 3.5-1.8-2.5 3.6-5.5 5.4-3.5ZM190.2 152.5c-2.5 2.2-5.1-2.4-2.6-4.1 2.4-1.7 4.6 2.4 2.6 4.1ZM361.1 299.4c2.3 2.5-3.7 6-5.4 3.5-1.8-2.5 3.6-5.5 5.4-3.5ZM120.5 335c6.4-1.1 5.9 9.5 0 8.9-5.9-.6-5.7-7.9 0-8.9ZM134.7 281.2c3-.5 2.8 4.5 0 4.2-2.8-.3-2.7-3.7 0-4.2ZM198.1 256.6c3-.5 2.8 4.5 0 4.2-2.8-.3-2.7-3.7 0-4.2ZM324.1 156.1c3-.5 2.8 4.5 0 4.2-2.8-.3-2.7-3.7 0-4.2ZM137.2 270.4c3.6-3.4 8.7 5.9 4.6 7.6-4.2 1.8-7.8-4.5-4.6-7.6ZM347.4 224.1c4.9-.5 3.2 10-1.1 8.8-4.3-1.1-3.3-8.4 1.1-8.8ZM291.1 380c3 3.9-6.9 7.9-8.1 3.6-1.2-4.3 5.4-7.1 8.1-3.6ZM184.2 134.6c6.4-1.1 5.9 9.5 0 8.9-5.9-.6-5.8-7.9 0-8.9Z"/></g><path d="m235.601 403.2 3.9-3.2 5 1.6v2.4l-8.9-.8ZM261.7 403l-1-1.3 3.7.3-.6 1.2-2.1-.2ZM254.601 406.3s2.2-2 2.6-2.3c.4-.3 5.5-.1 5.4 1.2-.1 1.3-.4 4.3-.9 4.3h-4.6l-2.5-3.2ZM250.301 399.1l2.6-1.2 2.6-.3-.6 2.2-.5.6-3-.2-1.1-1.1ZM248.001 401.2h.8l.5.9h-2s-.5-.1-.2-.3l.9-.6Z" fill="#455A64"/><path d="M126.8 418.9v-33.7h-66v-26.9l75.7-97.2h20.6v97H177v27.1h-19.9v33.7h-30.3Zm-35.7-60.8h39.1V307l-39.1 51.1Z" fill="#37474F"/><path d="M121.2 418.9v-33.7h-66v-26.9l75.7-97.2h20.6v97h19.9v27.1h-19.9v33.7h-30.3Zm-35.7-60.8h39.1V307l-39.1 51.1Z" fill="#2B777E"/><path d="M394.6 418.9v-33.7h-66v-26.9l75.7-97.2h20.6v97h19.9v27.1h-19.9v33.7h-30.3Zm-35.7-60.8H398V307l-39.1 51.1Z" fill="#37474F"/><path d="M389 418.9v-33.7h-66v-26.9l75.7-97.2h20.6v97h19.9v27.1h-19.9v33.7H389Zm-35.7-60.8h39.1V307l-39.1 51.1ZM204.7 80.8c-1.6 0-3-.3-4.2-.9-1.3-.6-2.4-1.4-3.3-2.4-.9-1-1.6-2.2-2.1-3.5-.5-1.3-.8-2.6-.8-4s.3-2.8.8-4.1c.5-1.3 1.3-2.4 2.2-3.5.9-1 2-1.8 3.3-2.4 1.3-.6 2.7-.9 4.2-.9s2.9.3 4.2.9c1.3.6 2.4 1.5 3.3 2.5.9 1 1.6 2.2 2.1 3.5.5 1.3.8 2.6.8 4s-.3 2.8-.8 4.1c-.5 1.3-1.2 2.4-2.2 3.4-.9 1-2 1.8-3.3 2.4-1.3.6-2.7.9-4.2.9ZM198.5 70c0 .9.1 1.8.4 2.7.3.9.7 1.6 1.2 2.3.5.7 1.2 1.2 1.9 1.6.8.4 1.6.6 2.6.6s1.9-.2 2.7-.6c.8-.4 1.4-1 1.9-1.6.5-.7.9-1.4 1.2-2.3.3-.8.4-1.7.4-2.6 0-.9-.1-1.8-.4-2.7-.3-.9-.7-1.6-1.2-2.3-.5-.7-1.2-1.2-1.9-1.6-.8-.4-1.6-.6-2.6-.6s-1.9.2-2.7.6c-.8.4-1.4 1-1.9 1.6-.5.7-.9 1.4-1.2 2.3-.2.8-.4 1.7-.4 2.6ZM225.2 80.9c-1.3 0-2.4-.2-3.4-.7-1-.4-1.9-1-2.6-1.8-.7-.8-1.3-1.6-1.6-2.6-.4-1-.6-2-.6-3.1s.2-2.1.6-3.1c.4-1 .9-1.8 1.6-2.6.7-.8 1.6-1.3 2.6-1.8 1-.4 2.2-.7 3.4-.7 1.3 0 2.4.2 3.4.7 1 .4 1.9 1 2.6 1.8.7.8 1.3 1.6 1.6 2.6.4 1 .6 2 .6 3.1s-.2 2.1-.6 3.1c-.4 1-.9 1.8-1.6 2.6-.7.8-1.6 1.3-2.6 1.8s-2.2.7-3.4.7Zm-4.1-8.1c0 .7.1 1.3.3 1.9.2.6.5 1.1.9 1.5.4.4.8.7 1.3 1 .5.2 1 .3 1.6.3.6 0 1.1-.1 1.6-.3.5-.2.9-.6 1.3-1s.7-.9.9-1.5c.2-.6.3-1.2.3-1.9s-.1-1.3-.3-1.9c-.2-.6-.5-1.1-.9-1.5-.4-.4-.8-.7-1.3-1-.5-.2-1-.3-1.6-.3-.6 0-1.1.1-1.6.4-.5.2-.9.6-1.3 1s-.7.9-.9 1.5c-.2.5-.3 1.1-.3 1.8ZM243.3 80.9c-1.3 0-2.4-.2-3.4-.7-1-.4-1.9-1-2.6-1.8-.7-.8-1.3-1.6-1.6-2.6-.4-1-.6-2-.6-3.1s.2-2.1.6-3.1c.4-1 .9-1.8 1.6-2.6.7-.8 1.6-1.3 2.6-1.8 1-.4 2.2-.7 3.4-.7 1.3 0 2.4.2 3.4.7 1 .4 1.9 1 2.6 1.8.7.8 1.3 1.6 1.6 2.6.4 1 .6 2 .6 3.1s-.2 2.1-.6 3.1c-.4 1-.9 1.8-1.6 2.6-.7.8-1.6 1.3-2.6 1.8-.9.5-2.1.7-3.4.7Zm-4.1-8.1c0 .7.1 1.3.3 1.9.2.6.5 1.1.9 1.5.4.4.8.7 1.3 1 .5.2 1 .3 1.6.3.6 0 1.1-.1 1.6-.3.5-.2.9-.6 1.3-1s.7-.9.9-1.5c.2-.6.3-1.2.3-1.9s-.1-1.3-.3-1.9c-.2-.6-.5-1.1-.9-1.5-.4-.4-.8-.7-1.3-1-.5-.2-1-.3-1.6-.3-.6 0-1.1.1-1.6.4-.5.2-.9.6-1.3 1s-.7.9-.9 1.5c-.2.5-.3 1.1-.3 1.8ZM263.7 80.9c-1.2 0-2.3-.3-3.2-.8-.9-.5-1.6-1.3-2.2-2.2V87h-4V64.9h3.5v2.7c.6-.9 1.3-1.6 2.2-2.2.9-.5 2-.8 3.2-.8 1.1 0 2 .2 2.9.6.9.4 1.7 1 2.3 1.7.6.7 1.2 1.6 1.5 2.6.4 1 .6 2 .6 3.1s-.2 2.2-.5 3.2-.8 1.9-1.4 2.6c-.6.7-1.3 1.3-2.2 1.7-.8.6-1.7.8-2.7.8Zm-1.4-3.4c.6 0 1.2-.1 1.7-.4.5-.3.9-.6 1.3-1.1.4-.4.6-.9.8-1.5.2-.6.3-1.2.3-1.8 0-.7-.1-1.3-.3-1.8-.2-.6-.5-1.1-.9-1.5-.4-.4-.8-.8-1.4-1-.5-.2-1.1-.4-1.7-.4-.4 0-.8.1-1.2.2-.4.1-.8.3-1.1.6-.3.2-.6.5-.9.8-.3.3-.5.7-.6 1v3.7c.4.9.9 1.6 1.7 2.2.7.7 1.5 1 2.3 1ZM279.2 80.9c-1.3 0-2.6-.2-3.9-.6-1.3-.4-2.3-1-3.2-1.8l1.5-2.5c1 .7 1.9 1.2 2.8 1.5.9.4 1.8.5 2.7.5.8 0 1.4-.1 1.9-.4.5-.3.7-.7.7-1.3 0-.6-.3-1-.8-1.2-.5-.3-1.4-.6-2.6-.9-1-.3-1.9-.5-2.6-.8-.7-.3-1.3-.6-1.7-.9-.4-.3-.8-.7-1-1.1-.2-.4-.3-.9-.3-1.5 0-.8.2-1.5.5-2.2.3-.6.7-1.2 1.3-1.6.6-.5 1.2-.8 2-1 .8-.2 1.6-.4 2.4-.4 1.2 0 2.3.2 3.3.5s2 .9 2.8 1.6l-1.6 2.4c-.8-.6-1.6-1-2.3-1.3-.8-.3-1.5-.4-2.2-.4-.7 0-1.2.1-1.7.4-.5.3-.7.7-.7 1.4 0 .3.1.5.2.7.1.2.3.3.5.5.2.1.6.3.9.4.4.1.9.3 1.5.4 1.1.3 2 .6 2.8.8.8.3 1.4.6 1.9 1s.8.8 1.1 1.2c.2.5.3 1 .3 1.7 0 1.5-.6 2.8-1.7 3.6-1.3.9-2.8 1.3-4.8 1.3ZM288.1 80.6v-4.3h3.3v4.3h-3.3ZM294.8 80.6v-4.3h3.3v4.3h-3.3ZM301.6 80.6v-4.3h3.3v4.3h-3.3ZM216.699 438.3v3.6h-14.8v-21.3h14.5v3.6h-10.4v5.1h9v3.4h-9v5.5h10.7v.1ZM219.999 442v-21.3h9.4c1 0 1.9.2 2.7.6.8.4 1.5 1 2.1 1.6.6.7 1.1 1.4 1.4 2.3.3.9.5 1.7.5 2.6 0 1.4-.3 2.6-1 3.8-.7 1.1-1.6 1.9-2.8 2.4l4.9 8h-4.7l-4.3-7.1h-4.1v7.1h-4.1Zm4.1-10.8h5.2c.4 0 .7-.1 1.1-.3.3-.2.6-.4.9-.7.2-.3.4-.7.6-1.1.1-.4.2-.9.2-1.3 0-.5-.1-1-.2-1.4-.2-.4-.4-.8-.6-1.1-.3-.3-.6-.5-.9-.7-.4-.2-.7-.3-1.1-.3h-5v6.9h-.2ZM239.899 442v-21.3h9.4c1 0 1.9.2 2.7.6.8.4 1.5 1 2.1 1.6.6.7 1.1 1.4 1.4 2.3.3.9.5 1.7.5 2.6 0 1.4-.3 2.6-1 3.8-.7 1.1-1.6 1.9-2.8 2.4l4.9 8h-4.7l-4.3-7.1h-4.1v7.1h-4.1Zm4.2-10.8h5.2c.4 0 .7-.1 1.1-.3.3-.2.6-.4.9-.7.2-.3.4-.7.6-1.1.1-.4.2-.9.2-1.3 0-.5-.1-1-.2-1.4-.2-.4-.4-.8-.6-1.1-.3-.3-.6-.5-.9-.7-.4-.2-.7-.3-1.1-.3h-5v6.9h-.2ZM269 442.1c-1.6 0-3-.3-4.2-.9-1.3-.6-2.4-1.4-3.3-2.4-.9-1-1.6-2.2-2.1-3.5-.5-1.3-.8-2.6-.8-4s.3-2.8.8-4.1c.5-1.3 1.3-2.4 2.2-3.4.9-1 2-1.8 3.3-2.4 1.3-.6 2.7-.9 4.2-.9s2.9.3 4.2.9c1.3.6 2.4 1.5 3.3 2.5.9 1 1.6 2.2 2.1 3.5.5 1.3.8 2.6.8 4s-.3 2.8-.8 4.1c-.5 1.3-1.2 2.4-2.2 3.4-.9 1-2 1.8-3.3 2.4-1.4.5-2.7.8-4.2.8Zm-6.2-10.8c0 .9.1 1.8.4 2.7.3.9.7 1.6 1.2 2.3.5.7 1.2 1.2 2 1.6.8.4 1.6.6 2.6.6s1.9-.2 2.7-.6c.8-.4 1.4-1 2-1.6.5-.7.9-1.4 1.2-2.3.3-.9.4-1.7.4-2.6 0-.9-.1-1.8-.4-2.7-.3-.9-.7-1.6-1.2-2.3-.5-.7-1.2-1.2-2-1.6-.8-.4-1.6-.6-2.6-.6s-1.9.2-2.7.6c-.8.4-1.4.9-2 1.6-.5.7-.9 1.4-1.2 2.3-.3.9-.4 1.7-.4 2.6ZM282.499 442v-21.3h9.4c1 0 1.9.2 2.7.6.8.4 1.5 1 2.1 1.6.6.7 1.1 1.4 1.4 2.3.3.9.5 1.7.5 2.6 0 1.4-.3 2.6-1 3.8-.7 1.1-1.6 1.9-2.8 2.4l4.9 8h-4.7l-4.3-7.1h-4.1v7.1h-4.1Zm4.2-10.8h5.2c.4 0 .7-.1 1.1-.3.3-.2.6-.4.9-.7.2-.3.4-.7.6-1.1.1-.4.2-.9.2-1.3 0-.5-.1-1-.2-1.4-.2-.4-.4-.8-.6-1.1-.3-.3-.6-.5-.9-.7-.3-.2-.7-.3-1.1-.3h-5v6.9h-.2Z" fill="#2B777E"/><path d="M418.9 104.3c-2.3 21.7-21.8 37.5-43.5 35.3-8.8-.9-16.6-4.6-22.7-10.2l-19.8 2.9 9.9-17.1c-2.4-5.9-3.4-12.4-2.7-19.1 2.3-21.7 21.8-37.5 43.5-35.3 21.7 2.3 37.5 21.8 35.3 43.5Z" fill="#fff"/><path d="M418.9 104.3c-.8 7.2-3.5 14.3-8 20.1-1 1.5-2.4 2.8-3.6 4.1-1.4 1.2-2.7 2.5-4.2 3.5-2.9 2.2-6.2 4-9.6 5.3-3.4 1.4-7 2.1-10.7 2.5-1.8.1-3.7.3-5.5.1-1.8 0-3.7-.2-5.5-.6-7.2-1.3-14.1-4.7-19.6-9.7l.5.1-19.8 3-1.4.2.7-1.3 9.9-17.2v.7c-4.8-11.3-3.7-24.8 2.4-35.3 3.1-5.3 7.3-9.8 12.4-13.2 5-3.4 10.9-5.5 16.9-6.3 6-.8 12.2-.2 17.9 1.7 5.7 1.9 11 5.2 15.3 9.4 8.7 8.6 13.1 21 11.9 32.9Zm0 0c1.2-11.9-3.3-24.3-12-32.5-4.3-4.1-9.6-7.2-15.3-9-5.7-1.8-11.8-2.2-17.6-1.3-5.8.9-11.5 3.1-16.4 6.5-4.8 3.4-8.9 7.8-11.8 12.9-3 5.1-4.6 10.9-5 16.8-.4 5.9.6 11.8 2.8 17.2l.1.4-.2.3-10 17.1-.7-1 19.8-2.8h.3l.2.2c5.2 4.9 11.9 8.4 19 9.8 1.8.4 3.6.6 5.4.7 1.8.2 3.6.1 5.4 0 3.6-.4 7.2-1 10.6-2.3 3.4-1.3 6.7-2.9 9.6-5.1 1.5-1 2.8-2.3 4.2-3.5 1.2-1.3 2.6-2.6 3.6-4.1 4.4-6 7.1-13 8-20.3Z" fill="#263238"/><path d="M354.1 94c.5 1.2 1.2 2.3 2.1 3.3-.1 2.7 1.8 5.2 3.6 7 2.2 2.1 4.8 3.7 7.5 5 4.5 2.1 9.4 3.4 14.3 4.2-.3 3.9-1.7 7.8-3.1 11.4 0 .1.1.1.1 0 1.4-3.6 3-7.4 3.5-11.3 1 .2 1.9.3 2.9.4 1.5.2 3 .4 4.6.5 2.7.3 5.4.5 8 .4 3.1-.1 6.3-.9 8.7-3 2.3-2 3.2-4.9 2.5-7.9-.3-1.3-.8-2.5-1.4-3.6-.4-.8-.8-1.6-1.3-2.3-1.6-2.5-3.7-4.5-6.1-6.3-.6-.5-1.2-.9-1.9-1.3-.1-.1-.2-.2-.3-.2-2.3-2.2-5-3.8-7.8-5.2-5.9-2.9-12.5-4.5-19.1-4.6-3.3-.1-6.7.2-9.9.9-2.9.6-5.7 1.8-7 4.5-.9 2-1 4.2-.4 6.3.1.6.3 1.2.5 1.8Zm33.2 19.2c-1.7-.2-3.4-.5-5-.9v-.6c.4.1.7.1 1.1.1.3 0 .7.1 1 .1 3.1.5 6.3.7 9.4.6 2.8-.1 5.6-.5 8.3-1.2-3.9 2.1-8.9 2.4-13.2 2.1-.5-.1-1.1-.1-1.6-.2Zm-10.2-28.7c.9.2 1.7.4 2.6.6-2.3 0-4.5.4-6.6 1.1-2.3.8-4.5 2.1-6 4.1-1.2.3-2.3.8-3.4 1.4-.2 0-.5 0-.7.1-.9.1-1.8.4-2.7.7v-.4c0-2.8 2.2-4.6 4.5-5.7 2.6-1.2 5.5-1.7 8.3-1.9 1.2-.1 2.6-.1 4 0Zm-16.2 12.4c.3.4.5.7.8 1-.3.2-.5.5-.8.8 0-.5-.1-1.2 0-1.8Zm20.8 14.7v.6c-2.3-.5-4.7-1.2-6.9-2 1.4.4 2.8.7 4.3.9.8.2 1.7.3 2.6.5Zm-.6-3.8c-6-1.2-11.9-3.3-17.3-6.2l-2.1-1.2c.2-.6.6-1.1 1-1.4 2.3 2.1 5.2 3.6 8.1 4.9 3.1 1.3 6.3 2.3 9.5 3.3.2.1.4 0 .5-.1 0 0 0 .1.1.1 0 .1.1.4.2.6ZM364.5 99c-.3-.2-.5-.4-.8-.7 1.2-.4 2.5-.3 3.7-.1 2.8.6 5.7 1.4 8.2 2.7 2.1 1.2 3.8 2.9 4.8 5-5.5-1.6-11.3-3.4-15.9-6.9Zm16.9 10c.1.3.1.7.2 1h-.1c-.4-.1-.9-.2-1.3-.3-.6-.2-1.2-.3-1.8-.5-3.1-.9-6.1-2.2-9-3.7 3.2 1.3 6.5 2.3 9.9 3.1.7.2 1.4.3 2.1.4Zm.7.2c1.8.3 3.7.6 5.5.7-.8.4-1.7.5-2.5.6-1 0-1.9-.1-2.9-.3 0-.4-.1-.7-.1-1Zm-12.9-2.4c-.1-.1-.3-.1-.4-.2-1.3-.6-2.6-1.2-3.8-2-.3-.2-.7-.5-1.1-.7l-.5-.5c-.1-.1-.2-.2-.3-.4 2 1.4 4 2.7 6.1 3.8Zm-7.9-11.2c.5-1.2 1.3-2.1 2.3-2.8.9-.1 1.8-.1 2.7 0 .2.6.6 1.1 1.2 1.6 1.2 1 2.5 1.8 3.8 2.6 4.9 2.9 10.3 4.8 15.9 5.6.9 1.1 1.6 2.3 1.8 3.7.2.9.1 1.8-.4 2.6-2.3-.2-4.6-.5-6.9-.9-.1-.4-.2-.7-.3-1.1-.9-2.8-2.7-5.1-5.3-6.6-2.6-1.5-5.7-2.5-8.6-3.1-1.6-.4-3.4-.5-4.9.2 0 0-.1 0-.1.1-.4-.7-.8-1.2-1.2-1.9Zm38.7 5.1c-.4.4-1 .6-1.6.8-1.4-2.5-3.6-4.5-5.8-6.2-4.6-3.4-10.1-5.5-15.8-6-2.6-.2-5.2 0-7.7.4l.2-.2c.9-.8 2-1.4 3.1-1.9 4.3-1.9 9.4-1.7 14-.7.1 0 .2.1.3.1 4.7 1.7 9.2 4.1 13.2 7.2 0 .1.1.1.1.2 1 1.9 1.8 4.8 0 6.3Zm-32.2-9.6c2.2-.6 4.6-.9 6.9-.8 5.3.1 10.5 1.6 15 4.3 2.3 1.4 4.3 3.1 6.1 5.1.5.6 1.1 1.3 1.5 2-.5 0-.9.1-1.3.1-1.5.1-3 .2-4.5.1-1.1 0-2.3-.1-3.4-.3l-.1-.1c-3.8-4.6-9.5-7-15.1-8.6-1.8-.5-3.6-1-5.5-1.2.1-.2.3-.4.4-.6Zm1.3 2.1c2.8.6 5.6 1.4 8.2 2.5 2.5 1 5 2.4 7.1 4.1.6.5 1.1 1 1.7 1.5-3.9-.7-7.7-1.9-11.3-3.7-1.3-.6-2.5-1.3-3.7-2.1-.7-.4-1.3-.9-1.9-1.3-.5-.4-1.1-.8-1.5-1.3.4.1.9.2 1.4.3Zm28.4 14c-1.5 1.7-4.2 1.9-6.3 1.8h-.9c.8-2-.1-4.3-1.3-6.1 2.9.3 5.9.3 8.8-.2.8 1.5.9 3.2-.3 4.5Zm-36.8-12.7c-.1-.3-.2-.5-.3-.8.4-.2.8-.3 1.3-.5-.1.2-.3.3-.4.5-.3.3-.4.6-.6.8Zm44.4 14.6c-.7.3-1.4.5-2.1.7-2.7.8-5.4 1.2-8.1 1.4-2.2.1-4.4.1-6.6-.1.5-.3 1-.7 1.4-1.1h.1c2.5.1 5.3.2 7.5-1.2 1.1-.7 1.8-1.7 2.1-3 .2-1.1 0-2.3-.4-3.4 1.1-.3 2.1-.9 2.7-1.9.6-1 .6-2.2.5-3.3l-.3-1.2c1.7 1.6 3.5 3.4 4.6 5.4.7 1.3 1.1 2.8.7 4.3-.3 1.3-1 2.4-1.9 3.3-.1 0-.2.1-.2.1Zm-45.5-10.2c-.7-.7-1.4-1.3-2.1-2.1.2-1.1 1-2 1.9-2.6.2.6.4 1.1.7 1.6-.3 1.1-.3 2.3-.1 3.4-.1-.1-.2-.2-.4-.3Zm-4.5-5.9c-.5-1.5-.5-3.1.2-4.7 1.1-2.4 3.5-3.9 6-4.6 3-.8 6.2-.5 9.3-.2.2 0 .3 0 .5.1-2.4.3-4.7.9-6.8 1.9-2.4 1.1-4.7 3-5.1 5.7-.1.6-.1 1.2 0 1.8-1.1.6-2.1 1.5-2.6 2.7-.6-.9-1.1-1.8-1.5-2.7Zm35.5-6.5c-2.6-1.1-5.2-1.9-7.9-2.4-1.5-.3-3.1-.5-4.7-.7-1.7-.3-3.4-.6-5.2-.9-5.8-.8-13.3-1.6-17.5 3.5-.1.2-.3.3-.4.5.2-.5.5-1.1.9-1.5.9-1.1 2.2-1.8 3.5-2.2 2.9-.9 6-1.2 9-1.3 6.1-.2 12.2.8 17.9 3.1 1.5.5 3 1.2 4.4 1.9Zm8.9 27.2c-.2 0-.3 0-.5.1 1.6-.5 3.2-1.1 4.6-2 .7-.5 1.5-1 2.1-1.6.4-.2.8-.5 1.2-.8l.2-.2c-.1.2-.2.5-.4.7-1.7 2.3-4.5 3.4-7.2 3.8Zm-41-12.9c-.4-.6-.7-1.3-.9-2 .7.7 1.6 1.3 2.4 1.9.1 0 .1.1.2.1-.1 1.2.6 2.3 1.5 3.2 1.2 1.1 2.5 2 3.9 2.7.5.4 1 .7 1.5 1 .6.4 1.3.7 2 1.1-1.6-.7-3.1-1.5-4.6-2.4-2.3-1.4-4.6-3.2-6-5.6Z" fill="#263238"/></g><defs><clipPath id="a"><path fill="#fff" d="M0 0h500v500H0z"/></clipPath></defs></svg>